<svg width="56" height="56" viewBox="0 0 56 56" fill="none" xmlns="http://www.w3.org/2000/svg">
<path d="M45.0909 16.6075C45.6432 14.9171 45.8326 13.1291 45.6468 11.3605C45.461 9.59193 44.9041 7.88242 44.0125 6.34372C43.8972 6.14407 43.7314 5.9783 43.5317 5.8631C43.332 5.7479 43.1055 5.68732 42.875 5.68747C40.8675 5.68302 38.8878 6.1569 37.0999 7.06988C35.3119 7.98286 33.7673 9.30866 32.5938 10.9375H26.9062C25.7327 9.30866 24.1881 7.98286 22.4001 7.06988C20.6122 6.1569 18.6325 5.68302 16.625 5.68747C16.3945 5.68732 16.168 5.7479 15.9683 5.8631C15.7686 5.9783 15.6028 6.14407 15.4875 6.34372C14.5959 7.88242 14.039 9.59193 13.8532 11.3605C13.6674 13.1291 13.8568 14.9171 14.4091 16.6075C13.3016 18.4665 12.7076 20.5862 12.6875 22.75V24.5C12.6913 27.497 13.833 30.3808 15.8816 32.5683C17.9303 34.7558 20.7331 36.0839 23.7234 36.284C22.2551 37.8247 21.4365 39.8717 21.4375 42V44.1875H15.75C14.2416 44.1875 12.7949 43.5883 11.7283 42.5216C10.6617 41.455 10.0625 40.0084 10.0625 38.5C10.0625 36.2954 9.18672 34.181 7.62782 32.6221C6.06893 31.0633 3.95461 30.1875 1.75 30.1875C1.4019 30.1875 1.06806 30.3258 0.821922 30.5719C0.575781 30.818 0.4375 31.1519 0.4375 31.5C0.4375 31.8481 0.575781 32.1819 0.821922 32.4281C1.06806 32.6742 1.4019 32.8125 1.75 32.8125C3.25842 32.8125 4.70506 33.4117 5.77167 34.4783C6.83828 35.5449 7.4375 36.9916 7.4375 38.5C7.4375 40.7046 8.31328 42.8189 9.87218 44.3778C11.4311 45.9367 13.5454 46.8125 15.75 46.8125H21.4375V50.75C21.4375 51.0981 21.5758 51.4319 21.8219 51.6781C22.0681 51.9242 22.4019 52.0625 22.75 52.0625C23.0981 52.0625 23.4319 51.9242 23.6781 51.6781C23.9242 51.4319 24.0625 51.0981 24.0625 50.75V42C24.0625 40.4916 24.6617 39.0449 25.7283 37.9783C26.7949 36.9117 28.2416 36.3125 29.75 36.3125C31.2584 36.3125 32.7051 36.9117 33.7717 37.9783C34.8383 39.0449 35.4375 40.4916 35.4375 42V50.75C35.4375 51.0981 35.5758 51.4319 35.8219 51.6781C36.0681 51.9242 36.4019 52.0625 36.75 52.0625C37.0981 52.0625 37.4319 51.9242 37.6781 51.6781C37.9242 51.4319 38.0625 51.0981 38.0625 50.75V42C38.0635 39.8717 37.2449 37.8247 35.7766 36.284C38.7669 36.0839 41.5697 34.7558 43.6184 32.5683C45.667 30.3808 46.8087 27.497 46.8125 24.5V22.75C46.7924 20.5862 46.1984 18.4665 45.0909 16.6075ZM44.1875 24.5C44.1875 26.9366 43.2195 29.2735 41.4965 30.9965C39.7736 32.7195 37.4367 33.6875 35 33.6875H24.5C22.0633 33.6875 19.7264 32.7195 18.0035 30.9965C16.2805 29.2735 15.3125 26.9366 15.3125 24.5V22.75C15.3354 20.905 15.8898 19.1057 16.9094 17.5678C17.0433 17.39 17.1299 17.1811 17.1609 16.9607C17.1919 16.7403 17.1663 16.5156 17.0866 16.3078C16.5913 15.029 16.3635 13.6622 16.4173 12.2919C16.4711 10.9216 16.8054 9.57693 17.3994 8.34091C18.9543 8.45821 20.4605 8.93647 21.7983 9.7377C23.1361 10.5389 24.2686 11.641 25.1059 12.9565C25.2247 13.1424 25.3883 13.2953 25.5818 13.4013C25.7752 13.5072 25.9923 13.5626 26.2128 13.5625H33.2872C33.5075 13.5628 33.7244 13.5077 33.9179 13.4022C34.1113 13.2967 34.2751 13.1442 34.3941 12.9587C35.2309 11.6426 36.3633 10.5399 37.7011 9.73822C39.039 8.93657 40.5454 8.45812 42.1006 8.34091C42.6946 9.57693 43.0289 10.9216 43.0827 12.2919C43.1365 13.6622 42.9087 15.029 42.4134 16.3078C42.3339 16.5146 42.308 16.7383 42.3382 16.9578C42.3685 17.1774 42.4538 17.3857 42.5863 17.5634C43.609 19.1017 44.1651 20.9029 44.1875 22.75V24.5Z" fill="black"/>
</svg>
