<svg width="56" height="56" viewBox="0 0 56 56" fill="none" xmlns="http://www.w3.org/2000/svg">
<path d="M28 17.9375C26.0098 17.9375 24.0643 18.5277 22.4096 19.6333C20.7548 20.739 19.4651 22.3106 18.7035 24.1492C17.9419 25.9879 17.7426 28.0112 18.1308 29.9631C18.5191 31.915 19.4775 33.708 20.8847 35.1153C22.292 36.5225 24.085 37.4809 26.0369 37.8692C27.9888 38.2574 30.0121 38.0581 31.8508 37.2965C33.6894 36.5349 35.261 35.2452 36.3667 33.5904C37.4723 31.9357 38.0625 29.9902 38.0625 28C38.059 25.3323 36.9978 22.7749 35.1114 20.8886C33.2251 19.0022 30.6677 17.941 28 17.9375ZM28 35.4375C26.529 35.4375 25.091 35.0013 23.8679 34.1841C22.6449 33.3668 21.6916 32.2052 21.1286 30.8462C20.5657 29.4872 20.4184 27.9917 20.7054 26.549C20.9924 25.1063 21.7007 23.781 22.7409 22.7409C23.781 21.7007 25.1063 20.9924 26.549 20.7054C27.9917 20.4184 29.4872 20.5657 30.8462 21.1286C32.2052 21.6916 33.3668 22.6449 34.1841 23.8679C35.0013 25.091 35.4375 26.529 35.4375 28C35.4375 29.9725 34.6539 31.8643 33.2591 33.2591C31.8643 34.6539 29.9725 35.4375 28 35.4375ZM38.5 5.6875H17.5C14.3682 5.69097 11.3657 6.93662 9.15114 9.15114C6.93662 11.3657 5.69097 14.3682 5.6875 17.5V38.5C5.69097 41.6318 6.93662 44.6343 9.15114 46.8489C11.3657 49.0634 14.3682 50.309 17.5 50.3125H38.5C41.6318 50.309 44.6343 49.0634 46.8489 46.8489C49.0634 44.6343 50.309 41.6318 50.3125 38.5V17.5C50.309 14.3682 49.0634 11.3657 46.8489 9.15114C44.6343 6.93662 41.6318 5.69097 38.5 5.6875ZM47.6875 38.5C47.6875 40.9367 46.7195 43.2736 44.9965 44.9965C43.2736 46.7195 40.9367 47.6875 38.5 47.6875H17.5C15.0633 47.6875 12.7264 46.7195 11.0035 44.9965C9.28047 43.2736 8.3125 40.9367 8.3125 38.5V17.5C8.3125 15.0633 9.28047 12.7264 11.0035 11.0035C12.7264 9.28047 15.0633 8.3125 17.5 8.3125H38.5C40.9367 8.3125 43.2736 9.28047 44.9965 11.0035C46.7195 12.7264 47.6875 15.0633 47.6875 17.5V38.5ZM41.5625 16.625C41.5625 17.0576 41.4342 17.4806 41.1938 17.8403C40.9535 18.2 40.6118 18.4804 40.2121 18.646C39.8124 18.8116 39.3726 18.8549 38.9482 18.7705C38.5239 18.6861 38.1341 18.4777 37.8282 18.1718C37.5223 17.8659 37.3139 17.4761 37.2295 17.0518C37.1451 16.6274 37.1884 16.1876 37.354 15.7879C37.5196 15.3882 37.8 15.0465 38.1597 14.8062C38.5194 14.5658 38.9424 14.4375 39.375 14.4375C39.9552 14.4375 40.5116 14.668 40.9218 15.0782C41.332 15.4884 41.5625 16.0448 41.5625 16.625Z" fill="black"/>
</svg>
