<svg width="56" height="56" viewBox="0 0 56 56" fill="none" xmlns="http://www.w3.org/2000/svg">
<path d="M47.25 5.6875H8.75C7.93777 5.6875 7.15882 6.01016 6.58449 6.58449C6.01016 7.15882 5.6875 7.93777 5.6875 8.75V47.25C5.6875 48.0622 6.01016 48.8412 6.58449 49.4155C7.15882 49.9898 7.93777 50.3125 8.75 50.3125H47.25C48.0622 50.3125 48.8412 49.9898 49.4155 49.4155C49.9898 48.8412 50.3125 48.0622 50.3125 47.25V8.75C50.3125 7.93777 49.9898 7.15882 49.4155 6.58449C48.8412 6.01016 48.0622 5.6875 47.25 5.6875ZM47.6875 47.25C47.6875 47.366 47.6414 47.4773 47.5594 47.5594C47.4773 47.6414 47.366 47.6875 47.25 47.6875H8.75C8.63397 47.6875 8.52269 47.6414 8.44064 47.5594C8.35859 47.4773 8.3125 47.366 8.3125 47.25V8.75C8.3125 8.63397 8.35859 8.52269 8.44064 8.44064C8.52269 8.35859 8.63397 8.3125 8.75 8.3125H47.25C47.366 8.3125 47.4773 8.35859 47.5594 8.44064C47.6414 8.52269 47.6875 8.63397 47.6875 8.75V47.25ZM20.5625 24.5V38.5C20.5625 38.8481 20.4242 39.1819 20.1781 39.4281C19.9319 39.6742 19.5981 39.8125 19.25 39.8125C18.9019 39.8125 18.5681 39.6742 18.3219 39.4281C18.0758 39.1819 17.9375 38.8481 17.9375 38.5V24.5C17.9375 24.1519 18.0758 23.8181 18.3219 23.5719C18.5681 23.3258 18.9019 23.1875 19.25 23.1875C19.5981 23.1875 19.9319 23.3258 20.1781 23.5719C20.4242 23.8181 20.5625 24.1519 20.5625 24.5ZM39.8125 30.625V38.5C39.8125 38.8481 39.6742 39.1819 39.4281 39.4281C39.1819 39.6742 38.8481 39.8125 38.5 39.8125C38.1519 39.8125 37.8181 39.6742 37.5719 39.4281C37.3258 39.1819 37.1875 38.8481 37.1875 38.5V30.625C37.1875 29.3486 36.6805 28.1246 35.778 27.222C34.8754 26.3195 33.6514 25.8125 32.375 25.8125C31.0986 25.8125 29.8746 26.3195 28.972 27.222C28.0695 28.1246 27.5625 29.3486 27.5625 30.625V38.5C27.5625 38.8481 27.4242 39.1819 27.1781 39.4281C26.9319 39.6742 26.5981 39.8125 26.25 39.8125C25.9019 39.8125 25.5681 39.6742 25.3219 39.4281C25.0758 39.1819 24.9375 38.8481 24.9375 38.5V24.5C24.9375 24.1519 25.0758 23.8181 25.3219 23.5719C25.5681 23.3258 25.9019 23.1875 26.25 23.1875C26.5981 23.1875 26.9319 23.3258 27.1781 23.5719C27.4242 23.8181 27.5625 24.1519 27.5625 24.5V24.9616C28.6442 24.0436 29.9658 23.4541 31.3715 23.2627C32.7772 23.0713 34.2084 23.2859 35.4961 23.8813C36.7838 24.4766 37.8744 25.4278 38.6392 26.6227C39.404 27.8176 39.8111 29.2063 39.8125 30.625ZM21.4375 18.375C21.4375 18.8076 21.3092 19.2306 21.0688 19.5903C20.8285 19.95 20.4868 20.2304 20.0871 20.396C19.6874 20.5616 19.2476 20.6049 18.8232 20.5205C18.3989 20.4361 18.0091 20.2277 17.7032 19.9218C17.3973 19.6159 17.1889 19.2261 17.1045 18.8018C17.0201 18.3774 17.0634 17.9376 17.229 17.5379C17.3946 17.1382 17.675 16.7965 18.0347 16.5562C18.3944 16.3158 18.8174 16.1875 19.25 16.1875C19.8302 16.1875 20.3866 16.418 20.7968 16.8282C21.207 17.2384 21.4375 17.7948 21.4375 18.375Z" fill="black"/>
</svg>
