<svg width="34" height="34" viewBox="0 0 34 34" fill="none" xmlns="http://www.w3.org/2000/svg">
<path fill-rule="evenodd" clip-rule="evenodd" d="M1 3C1 1.89543 1.89543 1 3 1H31C32.1046 1 33 1.89543 33 3V31C33 32.1046 32.1046 33 31 33H22.3C21.8582 33 21.5 32.6418 21.5 32.2V17.8C21.5 17.3582 21.1418 17 20.7 17H9.3C8.85817 17 8.5 17.3582 8.5 17.8V23.2C8.5 23.6418 8.85817 24 9.3 24H12.1C12.3209 24 12.5 24.1791 12.5 24.4V32.2C12.5 32.6418 12.1418 33 11.7 33H3C1.89543 33 1 32.1046 1 31V3ZM12.5 5.8C12.5 5.35817 12.8582 5 13.3 5H20.7C21.1418 5 21.5 5.35817 21.5 5.8V13.2C21.5 13.6418 21.1418 14 20.7 14H13.3C12.8582 14 12.5 13.6418 12.5 13.2V5.8Z" fill="#2FB6B2" fill-opacity="0.25" stroke="#2FB6B2"/>
<path d="M12.5 5.8C12.5 5.35817 12.8582 5 13.3 5H20.7C21.1418 5 21.5 5.35817 21.5 5.8V13.2C21.5 13.6418 21.1418 14 20.7 14H13.3C12.8582 14 12.5 13.6418 12.5 13.2V5.8Z" stroke="#D91143"/>
</svg>
