<svg width="32" height="32" viewBox="0 0 32 32" fill="none" xmlns="http://www.w3.org/2000/svg">
<rect x="13" y="2" width="6" height="6" rx="0.8" fill="#D91143" fill-opacity="0.25" stroke="#D91143"/>
<path d="M9 11.8C9 11.3582 9.35817 11 9.8 11H17.4C18.2837 11 19 11.7163 19 12.6V23.6C19 23.8209 19.1791 24 19.4 24H23.2C23.6418 24 24 24.3582 24 24.8V29.2C24 29.6418 23.6418 30 23.2 30H14.6C13.7163 30 13 29.2837 13 28.4V17.4C13 17.1791 12.8209 17 12.6 17H9.8C9.35817 17 9 16.6418 9 16.2V11.8Z" fill="#2FB6B2" fill-opacity="0.25"/>
<path fill-rule="evenodd" clip-rule="evenodd" d="M9.8 11.5C9.63431 11.5 9.5 11.6343 9.5 11.8V16.2C9.5 16.3657 9.63431 16.5 9.8 16.5H12.6C13.0971 16.5 13.5 16.9029 13.5 17.4V28.4C13.5 29.0075 13.9925 29.5 14.6 29.5H23.2C23.3657 29.5 23.5 29.3657 23.5 29.2V24.8C23.5 24.6343 23.3657 24.5 23.2 24.5H19.4C18.9029 24.5 18.5 24.0971 18.5 23.6V12.6C18.5 11.9925 18.0075 11.5 17.4 11.5H9.8ZM8.5 11.8C8.5 11.082 9.08203 10.5 9.8 10.5H17.4C18.5598 10.5 19.5 11.4402 19.5 12.6V23.3C19.5 23.4105 19.5895 23.5 19.7 23.5H23.2C23.918 23.5 24.5 24.082 24.5 24.8V29.2C24.5 29.918 23.918 30.5 23.2 30.5H14.6C13.4402 30.5 12.5 29.5598 12.5 28.4V17.7C12.5 17.5895 12.4105 17.5 12.3 17.5H9.8C9.08203 17.5 8.5 16.918 8.5 16.2V11.8Z" fill="#2FB6B2"/>
</svg>
