<svg width="32" height="32" viewBox="0 0 32 32" fill="none" xmlns="http://www.w3.org/2000/svg">
<path d="M13 4.24999H7C6.53587 4.24999 6.09075 4.43436 5.76256 4.76255C5.43437 5.09074 5.25 5.53586 5.25 5.99999V26C5.25 26.4641 5.43437 26.9092 5.76256 27.2374C6.09075 27.5656 6.53587 27.75 7 27.75H13C13.2298 27.75 13.4574 27.7047 13.6697 27.6168C13.882 27.5288 14.0749 27.3999 14.2374 27.2374C14.3999 27.0749 14.5288 26.882 14.6168 26.6697C14.7047 26.4574 14.75 26.2298 14.75 26V5.99999C14.75 5.77018 14.7047 5.54261 14.6168 5.33029C14.5288 5.11797 14.3999 4.92506 14.2374 4.76255C14.0749 4.60005 13.882 4.47115 13.6697 4.3832C13.4574 4.29525 13.2298 4.24999 13 4.24999ZM6.75 9.74999H13.25V22.25H6.75V9.74999ZM7 5.74999H13C13.0663 5.74999 13.1299 5.77633 13.1768 5.82321C13.2237 5.8701 13.25 5.93369 13.25 5.99999V8.24999H6.75V5.99999C6.75 5.93369 6.77634 5.8701 6.82322 5.82321C6.87011 5.77633 6.9337 5.74999 7 5.74999ZM13 26.25H7C6.9337 26.25 6.87011 26.2237 6.82322 26.1768C6.77634 26.1299 6.75 26.0663 6.75 26V23.75H13.25V26C13.25 26.0663 13.2237 26.1299 13.1768 26.1768C13.1299 26.2237 13.0663 26.25 13 26.25ZM28.7125 24.375L24.5637 4.64499C24.5169 4.41912 24.4259 4.20474 24.2959 4.01417C24.166 3.82361 23.9996 3.66061 23.8064 3.53457C23.6132 3.40853 23.397 3.32192 23.1703 3.27973C22.9435 3.23754 22.7106 3.2406 22.485 3.28874L16.6338 4.54624C16.1809 4.64578 15.7856 4.91987 15.5336 5.30903C15.2815 5.6982 15.1931 6.17105 15.2875 6.62499L19.4363 26.3512C19.4834 26.5779 19.5751 26.7929 19.706 26.9839C19.8369 27.1749 20.0044 27.338 20.1987 27.4637C20.4801 27.6478 20.8088 27.7459 21.145 27.7462C21.2711 27.7469 21.3969 27.7335 21.52 27.7062L27.3713 26.45C27.8224 26.3493 28.2158 26.0753 28.4668 25.6871C28.7177 25.2989 28.8059 24.8277 28.7125 24.375ZM18.3612 13.96L24.7025 12.5975L26.4675 20.9925L20.125 22.3512L18.3612 13.96ZM17.5325 10.015L23.875 8.64874L24.3937 11.125L18.0525 12.4875L17.5325 10.015ZM16.95 6.01499L22.8 4.75874C22.8175 4.75705 22.835 4.75705 22.8525 4.75874C22.8992 4.7588 22.9449 4.77272 22.9837 4.79874C23.0125 4.81702 23.0371 4.84098 23.0563 4.86913C23.0754 4.89729 23.0886 4.92906 23.095 4.96249L23.5637 7.18999L17.2237 8.54249L16.7563 6.31999C16.7416 6.25356 16.7538 6.18404 16.79 6.1265C16.8263 6.06895 16.8838 6.02799 16.95 6.01249V6.01499ZM27.0513 24.99L21.2 26.25C21.1687 26.2569 21.1363 26.2575 21.1047 26.2517C21.0731 26.2459 21.0431 26.2339 21.0163 26.2162C20.9875 26.198 20.9629 26.174 20.9437 26.1458C20.9246 26.1177 20.9114 26.0859 20.905 26.0525L20.4363 23.825L26.7763 22.4625L27.25 24.6787C27.2573 24.7121 27.258 24.7465 27.252 24.7801C27.246 24.8137 27.2334 24.8458 27.2149 24.8745C27.1964 24.9032 27.1724 24.9279 27.1444 24.9473C27.1163 24.9667 27.0846 24.9804 27.0513 24.9875V24.99Z" fill="#D91143"/>
</svg>
