<svg width="32" height="32" viewBox="0 0 32 32" fill="none" xmlns="http://www.w3.org/2000/svg">
<path d="M8.47996 11.5762L3.17121 16L8.47996 20.4237C8.55653 20.4865 8.61992 20.5638 8.66647 20.6512C8.71302 20.7385 8.74182 20.8342 8.7512 20.9328C8.76057 21.0313 8.75035 21.1308 8.72111 21.2254C8.69187 21.3199 8.6442 21.4078 8.58084 21.4839C8.51748 21.5599 8.43969 21.6227 8.35195 21.6685C8.26421 21.7144 8.16827 21.7424 8.06964 21.751C7.97102 21.7596 7.87168 21.7486 7.77733 21.7186C7.68299 21.6886 7.59552 21.6402 7.51996 21.5762L1.51996 16.5762C1.43547 16.5059 1.36749 16.4178 1.32084 16.3182C1.27418 16.2186 1.25 16.11 1.25 16C1.25 15.89 1.27418 15.7814 1.32084 15.6818C1.36749 15.5822 1.43547 15.4941 1.51996 15.4237L7.51996 10.4237C7.67301 10.2983 7.86942 10.2385 8.0664 10.2572C8.26339 10.276 8.44498 10.3718 8.57162 10.5238C8.69827 10.6759 8.7597 10.8718 8.74253 11.0689C8.72536 11.266 8.63098 11.4484 8.47996 11.5762ZM30.48 15.4237L24.48 10.4237C24.4044 10.3598 24.3169 10.3114 24.2226 10.2814C24.1283 10.2514 24.0289 10.2404 23.9303 10.249C23.8317 10.2576 23.7357 10.2856 23.648 10.3315C23.5602 10.3773 23.4824 10.4401 23.4191 10.5161C23.3557 10.5922 23.3081 10.6801 23.2788 10.7746C23.2496 10.8692 23.2393 10.9687 23.2487 11.0672C23.2581 11.1658 23.2869 11.2615 23.3335 11.3488C23.38 11.4362 23.4434 11.5135 23.52 11.5762L28.8287 16L23.52 20.4237C23.4434 20.4865 23.38 20.5638 23.3335 20.6512C23.2869 20.7385 23.2581 20.8342 23.2487 20.9328C23.2393 21.0313 23.2496 21.1308 23.2788 21.2254C23.3081 21.3199 23.3557 21.4078 23.4191 21.4839C23.4824 21.5599 23.5602 21.6227 23.648 21.6685C23.7357 21.7144 23.8317 21.7424 23.9303 21.751C24.0289 21.7596 24.1283 21.7486 24.2226 21.7186C24.3169 21.6886 24.4044 21.6402 24.48 21.5762L30.48 16.5762C30.5645 16.5059 30.6324 16.4178 30.6791 16.3182C30.7257 16.2186 30.7499 16.11 30.7499 16C30.7499 15.89 30.7257 15.7814 30.6791 15.6818C30.6324 15.5822 30.5645 15.4941 30.48 15.4237ZM20.2562 4.29875C20.1635 4.26514 20.065 4.25016 19.9665 4.25466C19.8679 4.25915 19.7713 4.28305 19.682 4.32496C19.5927 4.36688 19.5125 4.426 19.4461 4.49893C19.3797 4.57186 19.3284 4.65718 19.295 4.75L11.295 26.75C11.2292 26.937 11.2402 27.1424 11.3254 27.3214C11.4107 27.5003 11.5633 27.6383 11.75 27.705C11.8302 27.7338 11.9147 27.749 12 27.75C12.1539 27.75 12.3042 27.7027 12.4303 27.6143C12.5565 27.526 12.6524 27.401 12.705 27.2562L20.705 5.25625C20.7386 5.16367 20.7537 5.06536 20.7494 4.96694C20.7451 4.86853 20.7214 4.77193 20.6797 4.68266C20.638 4.5934 20.5792 4.51322 20.5065 4.4467C20.4339 4.38018 20.3488 4.32863 20.2562 4.295V4.29875Z" fill="#2FB6B2"/>
</svg>
