<svg width="32" height="32" viewBox="0 0 32 32" fill="none" xmlns="http://www.w3.org/2000/svg">
<path d="M30.5299 5.47001L26.5299 1.47001C26.39 1.34353 26.2076 1.27442 26.0189 1.27644C25.8303 1.27846 25.6494 1.35148 25.5122 1.48093C25.3751 1.61038 25.2917 1.78677 25.2788 1.97494C25.2658 2.16311 25.3243 2.34925 25.4424 2.49626L17.6124 10.3275C14.8174 8.80251 11.6612 8.87501 9.77116 10.77C9.28194 11.2566 8.89889 11.8392 8.64616 12.4813C8.54738 12.708 8.38502 12.9013 8.17872 13.0377C7.97241 13.1741 7.73099 13.2479 7.48366 13.25C5.72616 13.31 4.19991 13.9375 3.07116 15.0663C1.62491 16.5225 0.999914 18.625 1.33991 20.9738C1.66491 23.25 2.84741 25.5 4.67116 27.3288C6.49491 29.1575 8.74992 30.335 11.0262 30.66C11.4352 30.7191 11.8479 30.7492 12.2612 30.75C14.1099 30.75 15.7374 30.125 16.9299 28.9288C18.0549 27.8038 18.6862 26.275 18.7462 24.5163C18.7474 24.2674 18.8211 24.0244 18.9583 23.8168C19.0955 23.6092 19.2902 23.4462 19.5187 23.3475C20.1602 23.0966 20.7428 22.7157 21.2299 22.2288C23.1199 20.3388 23.1974 17.1825 21.6724 14.3875L29.4999 6.55751C29.6467 6.67749 29.8335 6.73742 30.0227 6.72525C30.2119 6.71307 30.3895 6.62968 30.5197 6.49187C30.6499 6.35406 30.7231 6.17205 30.7245 5.98246C30.726 5.79287 30.6555 5.60977 30.5274 5.47001H30.5299ZM24.9999 8.93876L23.0612 7.00001L26.4999 3.56001L28.4399 5.50001L24.9999 8.93876ZM20.1699 21.1688C19.827 21.5103 19.4172 21.7771 18.9662 21.9525C18.4667 22.1589 18.0382 22.5066 17.7334 22.9528C17.4285 23.3991 17.2605 23.9246 17.2499 24.465C17.2037 25.84 16.7274 27.0138 15.8749 27.8675C14.7637 28.9788 13.1249 29.4438 11.2499 29.175C9.29366 28.8963 7.33866 27.8638 5.74241 26.2688C4.14616 24.6738 3.11741 22.7175 2.83616 20.7613C2.56741 18.8863 3.03241 17.2413 4.14366 16.13C4.99741 15.275 6.17491 14.7988 7.54616 14.755C8.08699 14.7443 8.61289 14.5757 9.05924 14.2702C9.5056 13.9646 9.85297 13.5353 10.0587 13.035C10.2344 12.5845 10.5012 12.1752 10.8424 11.8325C11.5649 11.0963 12.5712 10.75 13.6799 10.75C14.6592 10.7664 15.6226 11.0009 16.4999 11.4363L13.6749 14.265C12.9635 14.3267 12.2845 14.5902 11.7178 15.0246C11.151 15.459 10.7201 16.0462 10.4756 16.7171C10.2311 17.388 10.1833 18.1148 10.3377 18.8119C10.4921 19.5091 10.8424 20.1477 11.3473 20.6526C11.8522 21.1576 12.4908 21.5078 13.188 21.6622C13.8852 21.8167 14.6119 21.7688 15.2828 21.5243C15.9538 21.2799 16.5409 20.8489 16.9753 20.2822C17.4097 19.7154 17.6732 19.0364 17.7349 18.325L20.5649 15.5C21.5787 17.6025 21.4999 19.835 20.1699 21.1688ZM18.8749 13.125C19.1998 13.4496 19.4994 13.7986 19.7712 14.1688L17.4374 16.5C17.0572 15.6342 16.3658 14.9427 15.4999 14.5625L17.8274 12.235C18.1985 12.5049 18.5486 12.8024 18.8749 13.125ZM13.9999 15.75C14.5967 15.75 15.1689 15.9871 15.5909 16.409C16.0129 16.831 16.2499 17.4033 16.2499 18C16.2499 18.445 16.118 18.88 15.8707 19.25C15.6235 19.6201 15.2721 19.9084 14.861 20.0787C14.4498 20.249 13.9974 20.2936 13.561 20.2068C13.1245 20.12 12.7236 19.9057 12.4089 19.591C12.0943 19.2763 11.88 18.8754 11.7931 18.439C11.7063 18.0025 11.7509 17.5501 11.9212 17.139C12.0915 16.7278 12.3799 16.3764 12.7499 16.1292C13.1199 15.882 13.5549 15.75 13.9999 15.75ZM19.9287 12.07C19.6044 11.7463 19.259 11.4444 18.8949 11.1663L21.9999 8.06001L23.9399 10L20.8349 13.1038C20.5564 12.7392 20.2541 12.3934 19.9299 12.0688L19.9287 12.07ZM11.5299 24.47C11.6004 24.5395 11.6565 24.6222 11.6949 24.7135C11.7333 24.8048 11.7532 24.9027 11.7536 25.0017C11.7539 25.1007 11.7347 25.1988 11.6969 25.2903C11.6592 25.3819 11.6037 25.465 11.5336 25.535C11.4636 25.6049 11.3804 25.6603 11.2888 25.698C11.1972 25.7356 11.0991 25.7548 11.0001 25.7543C10.9011 25.7538 10.8032 25.7338 10.712 25.6953C10.6207 25.6568 10.5381 25.6006 10.4687 25.53L6.46866 21.53C6.33618 21.3878 6.26406 21.1998 6.26749 21.0055C6.27092 20.8112 6.34963 20.6258 6.48704 20.4884C6.62446 20.351 6.80984 20.2723 7.00414 20.2688C7.19844 20.2654 7.38649 20.3375 7.52866 20.47L11.5299 24.47Z" fill="#D91143"/>
</svg>
