<svg width="32" height="32" viewBox="0 0 32 32" fill="none" xmlns="http://www.w3.org/2000/svg">
<path d="M26.215 7.28126L16.215 4.28126C16.103 4.24775 15.9847 4.24089 15.8696 4.2612C15.7545 4.28152 15.6457 4.32847 15.552 4.39829C15.4582 4.46812 15.3821 4.55889 15.3297 4.66336C15.2773 4.76784 15.25 4.88312 15.25 5.00001V19.1313C14.3461 18.1394 13.1238 17.4949 11.7948 17.3094C10.4657 17.124 9.11367 17.4092 7.97278 18.1156C6.83188 18.8221 5.97402 19.9054 5.54778 21.1778C5.12153 22.4503 5.15376 23.8317 5.63886 25.0829C6.12397 26.3341 7.03141 27.3762 8.204 28.0287C9.37659 28.6812 10.7405 28.9031 12.0594 28.6558C13.3784 28.4086 14.5693 27.7078 15.426 26.6749C16.2826 25.6419 16.751 24.3419 16.75 23V12.0075L25.785 14.7188C25.897 14.7523 26.0153 14.7591 26.1304 14.7388C26.2455 14.7185 26.3543 14.6716 26.448 14.6017C26.5417 14.5319 26.6179 14.4411 26.6703 14.3367C26.7227 14.2322 26.75 14.1169 26.75 14V8.00001C26.75 7.83859 26.698 7.68146 26.6016 7.55197C26.5052 7.42248 26.3696 7.32754 26.215 7.28126ZM11 27.25C10.1594 27.25 9.33773 27.0008 8.63883 26.5338C7.93992 26.0668 7.39518 25.403 7.07351 24.6264C6.75184 23.8498 6.66767 22.9953 6.83166 22.1709C6.99565 21.3465 7.40042 20.5892 7.9948 19.9948C8.58917 19.4004 9.34645 18.9957 10.1709 18.8317C10.9953 18.6677 11.8498 18.7519 12.6264 19.0735C13.403 19.3952 14.0667 19.9399 14.5337 20.6388C15.0007 21.3377 15.25 22.1594 15.25 23C15.25 24.1272 14.8022 25.2082 14.0052 26.0052C13.2082 26.8022 12.1272 27.25 11 27.25ZM25.25 12.9925L16.75 10.4425V6.00751L25.25 8.55751V12.9925Z" fill="#2FB6B2"/>
</svg>
