<svg width="32" height="32" viewBox="0 0 32 32" fill="none" xmlns="http://www.w3.org/2000/svg">
<path d="M29.7 7.93376C29.6462 7.70951 29.5483 7.4982 29.412 7.31214C29.2758 7.12608 29.1038 6.96899 28.9063 6.85001C25.0132 4.49497 20.55 3.25003 16 3.25003C11.4501 3.25003 6.98683 4.49497 3.09377 6.85001C2.69819 7.09089 2.41422 7.47875 2.3041 7.92862C2.19398 8.37848 2.26668 8.85365 2.50627 9.25001L14.5063 28.9088C14.6618 29.1676 14.8817 29.3818 15.1446 29.5305C15.4074 29.6792 15.7043 29.7574 16.0063 29.7574C16.3083 29.7574 16.6051 29.6792 16.868 29.5305C17.1308 29.3818 17.3507 29.1676 17.5063 28.9088L29.5 9.25001C29.6188 9.05478 29.6977 8.8379 29.732 8.61195C29.7663 8.386 29.7555 8.15548 29.7 7.93376ZM7.63377 14.775C7.97646 14.4103 8.39875 14.1296 8.86774 13.9549C9.33673 13.7801 9.83973 13.7161 10.3375 13.7677C10.8353 13.8193 11.3145 13.9852 11.7377 14.2524C12.1608 14.5196 12.5166 14.881 12.7772 15.3083C13.0377 15.7356 13.1961 16.2173 13.2399 16.7158C13.2837 17.2144 13.2118 17.7163 13.0298 18.1825C12.8477 18.6487 12.5605 19.0666 12.1904 19.4035C11.8203 19.7404 11.3774 19.9874 10.8963 20.125L7.63377 14.775ZM19.0088 23.565C18.3794 23.0746 17.9525 22.3697 17.8092 21.5848C17.666 20.7999 17.8166 19.9897 18.2322 19.3086C18.6478 18.6275 19.2994 18.1231 20.063 17.8914C20.8265 17.6598 21.6485 17.7171 22.3725 18.0525L19.0088 23.565ZM23.1588 16.765C22.4905 16.4237 21.7504 16.2471 21 16.25C19.9959 16.2502 19.0177 16.5685 18.2059 17.1593C17.394 17.7502 16.7903 18.583 16.4813 19.5384C16.1724 20.4937 16.1741 21.5224 16.4862 22.4768C16.7984 23.4311 17.4049 24.2619 18.2188 24.85L16.2188 28.13C16.1968 28.1679 16.1652 28.1993 16.1273 28.2212C16.0893 28.2431 16.0463 28.2546 16.0025 28.2546C15.9587 28.2546 15.9157 28.2431 15.8777 28.2212C15.8398 28.1993 15.8082 28.1679 15.7863 28.13L11.6988 21.4363C12.3499 21.1875 12.9383 20.7985 13.4222 20.2969C13.9061 19.7952 14.2737 19.1932 14.4988 18.5336C14.724 17.8739 14.8012 17.1728 14.7251 16.48C14.6489 15.7872 14.4212 15.1196 14.0581 14.5246C13.695 13.9297 13.2054 13.4219 12.6241 13.0374C12.0427 12.6528 11.3839 12.4009 10.6943 12.2996C10.0047 12.1982 9.30126 12.2499 8.63386 12.4508C7.96646 12.6518 7.35147 12.9972 6.83252 13.4625L5.75627 11.6988C8.8256 9.77206 12.3761 8.75003 16 8.75003C19.624 8.75003 23.1744 9.77206 26.2438 11.6988L23.1588 16.765ZM28.22 8.47126L27.025 10.4188C23.7205 8.34815 19.8997 7.24998 16 7.24998C12.1004 7.24998 8.27954 8.34815 4.97502 10.4188L3.78627 8.47126C3.76922 8.4442 3.75788 8.41395 3.75294 8.38235C3.748 8.35076 3.74955 8.31849 3.75752 8.28751C3.76575 8.25514 3.78039 8.22474 3.80058 8.19812C3.82076 8.1715 3.84607 8.14919 3.87502 8.13251C7.53268 5.92076 11.7256 4.75161 16 4.75161C20.2744 4.75161 24.4674 5.92076 28.125 8.13251C28.1535 8.14944 28.1783 8.17186 28.1981 8.19847C28.2178 8.22508 28.2321 8.25535 28.24 8.28751C28.2483 8.31832 28.2503 8.3505 28.2458 8.38209C28.2413 8.41368 28.2304 8.44402 28.2138 8.47126H28.22Z" fill="#2FB6B2"/>
</svg>
